<?xml version="1.0" encoding="UTF-8" standalone="no"?>
<!DOCTYPE svg PUBLIC "-//W3C//DTD SVG 1.1//EN"
 "http://www.w3.org/Graphics/SVG/1.1/DTD/svg11.dtd">
<!-- Generated by graphviz version 2.43.0 (0)
 -->
<!-- Title: G Pages: 1 -->
<svg width="799pt" height="939pt"
 viewBox="0.00 0.00 798.50 939.00" xmlns="http://www.w3.org/2000/svg" xmlns:xlink="http://www.w3.org/1999/xlink">
<g id="graph0" class="graph" transform="scale(1 1) rotate(0) translate(4 935)">
<title>G</title>
<polygon fill="#4a4a4a" stroke="transparent" points="-4,4 -4,-935 794.5,-935 794.5,4 -4,4"/>
<!-- n_0 -->
<g id="node1" class="node">
<title>n_0</title>
<ellipse fill="#000000" stroke="#000000" cx="27.5" cy="-841.5" rx="6.5" ry="6.5"/>
<text text-anchor="middle" x="10.5" y="-851.8" font-family="Times,serif" font-size="14.00" fill="#ffffff">Int</text>
</g>
<!-- n_1 -->
<g id="node2" class="node">
<title>n_1</title>
<ellipse fill="#000000" stroke="#000000" cx="99.5" cy="-841.5" rx="6.5" ry="6.5"/>
<text text-anchor="middle" x="82.5" y="-851.8" font-family="Times,serif" font-size="14.00" fill="#ffffff">Int</text>
</g>
<!-- n_2 -->
<g id="node3" class="node">
<title>n_2</title>
<ellipse fill="#000000" stroke="#000000" cx="175.5" cy="-841.5" rx="6.5" ry="6.5"/>
<text text-anchor="middle" x="158.5" y="-851.8" font-family="Times,serif" font-size="14.00" fill="#ffffff">Int</text>
</g>
<!-- e_2 -->
<g id="node30" class="node">
<title>e_2</title>
<defs>
<linearGradient id="l_0" gradientUnits="userSpaceOnUse" x1="175.5" y1="-799" x2="175.5" y2="-777" >
<stop offset="0" style="stop-color:#000000;stop-opacity:1.;"/>
<stop offset="1" style="stop-color:#ffffff;stop-opacity:1.;"/>
</linearGradient>
</defs>
<polygon fill="url(#l_0)" stroke="black" points="175.5,-799 164.5,-788 175.5,-777 186.5,-788 175.5,-799"/>
</g>
<!-- n_2&#45;&gt;e_2 -->
<g id="edge7" class="edge">
<title>n_2&#45;&gt;e_2</title>
<path fill="none" stroke="white" d="M175.5,-834.99C175.5,-826.48 175.5,-810 175.5,-799.25"/>
</g>
<!-- n_3 -->
<g id="node4" class="node">
<title>n_3</title>
<ellipse fill="#000000" stroke="#000000" cx="543.5" cy="-841.5" rx="6.5" ry="6.5"/>
<text text-anchor="middle" x="526.5" y="-851.8" font-family="Times,serif" font-size="14.00" fill="#ffffff">Int</text>
</g>
<!-- e_3 -->
<g id="node31" class="node">
<title>e_3</title>
<defs>
<linearGradient id="l_1" gradientUnits="userSpaceOnUse" x1="543.5" y1="-799" x2="543.5" y2="-777" >
<stop offset="0" style="stop-color:#000000;stop-opacity:1.;"/>
<stop offset="1" style="stop-color:#ffffff;stop-opacity:1.;"/>
</linearGradient>
</defs>
<polygon fill="url(#l_1)" stroke="black" points="543.5,-799 532.5,-788 543.5,-777 554.5,-788 543.5,-799"/>
</g>
<!-- n_3&#45;&gt;e_3 -->
<g id="edge9" class="edge">
<title>n_3&#45;&gt;e_3</title>
<path fill="none" stroke="white" d="M543.5,-834.99C543.5,-826.48 543.5,-810 543.5,-799.25"/>
</g>
<!-- n_4 -->
<g id="node5" class="node">
<title>n_4</title>
<ellipse fill="#ffffff" stroke="#000000" cx="175.5" cy="-734.5" rx="6.5" ry="6.5"/>
<text text-anchor="middle" x="158.5" y="-744.8" font-family="Times,serif" font-size="14.00" fill="#000000">Int</text>
</g>
<!-- e_4 -->
<g id="node32" class="node">
<title>e_4</title>
<defs>
<linearGradient id="l_2" gradientUnits="userSpaceOnUse" x1="83.5" y1="-679.5" x2="83.5" y2="-657.5" >
<stop offset="0" style="stop-color:#ffffff;stop-opacity:1.;"/>
<stop offset="1" style="stop-color:#000000;stop-opacity:1.;"/>
</linearGradient>
</defs>
<polygon fill="url(#l_2)" stroke="black" points="83.5,-679.5 72.5,-668.5 83.5,-657.5 94.5,-668.5 83.5,-679.5"/>
</g>
<!-- n_4&#45;&gt;e_4 -->
<g id="edge11" class="edge">
<title>n_4&#45;&gt;e_4</title>
<path fill="none" stroke="white" d="M169.88,-731.03C157.23,-725.3 125.87,-710.22 103.5,-692 97.5,-687.12 91.76,-680.36 87.97,-675.53"/>
</g>
<!-- e_5 -->
<g id="node33" class="node">
<title>e_5</title>
<defs>
<linearGradient id="l_3" gradientUnits="userSpaceOnUse" x1="267.5" y1="-679.5" x2="267.5" y2="-657.5" >
<stop offset="0" style="stop-color:#ffffff;stop-opacity:1.;"/>
<stop offset="1" style="stop-color:#000000;stop-opacity:1.;"/>
</linearGradient>
</defs>
<polygon fill="url(#l_3)" stroke="black" points="267.5,-679.5 256.5,-668.5 267.5,-657.5 278.5,-668.5 267.5,-679.5"/>
</g>
<!-- n_4&#45;&gt;e_5 -->
<g id="edge13" class="edge">
<title>n_4&#45;&gt;e_5</title>
<path fill="none" stroke="white" d="M181.12,-731.03C193.77,-725.3 225.13,-710.22 247.5,-692 253.5,-687.12 259.24,-680.36 263.03,-675.53"/>
</g>
<!-- n_5 -->
<g id="node6" class="node">
<title>n_5</title>
<ellipse fill="#000000" stroke="#000000" cx="108.5" cy="-602.5" rx="6.5" ry="6.5"/>
<text text-anchor="middle" x="91.5" y="-612.8" font-family="Times,serif" font-size="14.00" fill="#ffffff">Int</text>
</g>
<!-- e_7 -->
<g id="node35" class="node">
<title>e_7</title>
<polygon fill="none" stroke="black" points="97.5,-502 97.5,-548 151.5,-548 151.5,-502 97.5,-502"/>
<text text-anchor="middle" x="111" y="-532.8" font-family="Times,serif" font-size="14.00"> </text>
<polyline fill="none" stroke="black" points="124.5,-525 124.5,-548 "/>
<text text-anchor="middle" x="138" y="-532.8" font-family="Times,serif" font-size="14.00"> </text>
<polyline fill="none" stroke="black" points="97.5,-525 151.5,-525 "/>
<text text-anchor="middle" x="124.5" y="-509.8" font-family="Times,serif" font-size="14.00">&gt;</text>
</g>
<!-- n_5&#45;&gt;e_7 -->
<g id="edge16" class="edge">
<title>n_5&#45;&gt;e_7:s_0</title>
<path fill="none" stroke="white" d="M108.85,-595.98C109.42,-586.42 110.5,-566.15 110.5,-549"/>
</g>
<!-- e_9 -->
<g id="node37" class="node">
<title>e_9</title>
<polygon fill="none" stroke="black" points="170.5,-490.5 170.5,-559.5 224.5,-559.5 224.5,-490.5 170.5,-490.5"/>
<text text-anchor="middle" x="184" y="-544.3" font-family="Times,serif" font-size="14.00"> </text>
<polyline fill="none" stroke="black" points="197.5,-536.5 197.5,-559.5 "/>
<text text-anchor="middle" x="211" y="-544.3" font-family="Times,serif" font-size="14.00"> </text>
<polyline fill="none" stroke="black" points="170.5,-536.5 224.5,-536.5 "/>
<text text-anchor="middle" x="197.5" y="-521.3" font-family="Times,serif" font-size="14.00">&#45;</text>
<polyline fill="none" stroke="black" points="170.5,-513.5 224.5,-513.5 "/>
<text text-anchor="middle" x="197.5" y="-498.3" font-family="Times,serif" font-size="14.00"> </text>
</g>
<!-- n_5&#45;&gt;e_9 -->
<g id="edge19" class="edge">
<title>n_5&#45;&gt;e_9:s_0</title>
<path fill="none" stroke="white" d="M113.43,-598.21C123.08,-591.62 144.9,-576.08 160.5,-560 165.14,-555.22 162.83,-548 169.5,-548"/>
</g>
<!-- n_6 -->
<g id="node7" class="node">
<title>n_6</title>
<ellipse fill="#000000" stroke="#000000" cx="292.5" cy="-602.5" rx="6.5" ry="6.5"/>
<text text-anchor="middle" x="275.5" y="-612.8" font-family="Times,serif" font-size="14.00" fill="#ffffff">Int</text>
</g>
<!-- e_11 -->
<g id="node39" class="node">
<title>e_11</title>
<polygon fill="none" stroke="black" points="352.5,-502 352.5,-548 408.5,-548 408.5,-502 352.5,-502"/>
<text text-anchor="middle" x="366.5" y="-532.8" font-family="Times,serif" font-size="14.00"> </text>
<polyline fill="none" stroke="black" points="380.5,-525 380.5,-548 "/>
<text text-anchor="middle" x="394.5" y="-532.8" font-family="Times,serif" font-size="14.00"> </text>
<polyline fill="none" stroke="black" points="352.5,-525 408.5,-525 "/>
<text text-anchor="middle" x="380.5" y="-509.8" font-family="Times,serif" font-size="14.00">not &gt;</text>
</g>
<!-- n_6&#45;&gt;e_11 -->
<g id="edge23" class="edge">
<title>n_6&#45;&gt;e_11:s_0</title>
<path fill="none" stroke="white" d="M297.79,-598.57C308.06,-592.62 330.79,-578.14 343.5,-560 349.71,-551.14 340.68,-537 351.5,-537"/>
</g>
<!-- e_13 -->
<g id="node41" class="node">
<title>e_13</title>
<polygon fill="none" stroke="black" points="280.5,-490.5 280.5,-559.5 334.5,-559.5 334.5,-490.5 280.5,-490.5"/>
<text text-anchor="middle" x="294" y="-544.3" font-family="Times,serif" font-size="14.00"> </text>
<polyline fill="none" stroke="black" points="307.5,-536.5 307.5,-559.5 "/>
<text text-anchor="middle" x="321" y="-544.3" font-family="Times,serif" font-size="14.00"> </text>
<polyline fill="none" stroke="black" points="280.5,-536.5 334.5,-536.5 "/>
<text text-anchor="middle" x="307.5" y="-521.3" font-family="Times,serif" font-size="14.00">+</text>
<polyline fill="none" stroke="black" points="280.5,-513.5 334.5,-513.5 "/>
<text text-anchor="middle" x="307.5" y="-498.3" font-family="Times,serif" font-size="14.00"> </text>
</g>
<!-- n_6&#45;&gt;e_13 -->
<g id="edge26" class="edge">
<title>n_6&#45;&gt;e_13:s_0</title>
<path fill="none" stroke="white" d="M292.72,-595.86C293.02,-587.88 293.5,-572.83 293.5,-560"/>
</g>
<!-- n_7 -->
<g id="node8" class="node">
<title>n_7</title>
<ellipse fill="#000000" stroke="#000000" cx="139.5" cy="-602.5" rx="6.5" ry="6.5"/>
<text text-anchor="middle" x="122.5" y="-612.8" font-family="Times,serif" font-size="14.00" fill="#ffffff">Int</text>
</g>
<!-- n_7&#45;&gt;e_7 -->
<g id="edge17" class="edge">
<title>n_7&#45;&gt;e_7:s_1</title>
<path fill="none" stroke="white" d="M139.33,-595.98C139.04,-586.42 138.5,-566.14 138.5,-549"/>
</g>
<!-- n_8 -->
<g id="node9" class="node">
<title>n_8</title>
<ellipse fill="#000000" stroke="#000000" cx="211.5" cy="-602.5" rx="6.5" ry="6.5"/>
<text text-anchor="middle" x="194.5" y="-612.8" font-family="Times,serif" font-size="14.00" fill="#ffffff">Int</text>
</g>
<!-- n_8&#45;&gt;e_9 -->
<g id="edge20" class="edge">
<title>n_8&#45;&gt;e_9:s_1</title>
<path fill="none" stroke="white" d="M211.5,-595.86C211.5,-587.88 211.5,-572.82 211.5,-560"/>
</g>
<!-- n_9 -->
<g id="node10" class="node">
<title>n_9</title>
<ellipse fill="#000000" stroke="#000000" cx="215.5" cy="-447.5" rx="6.5" ry="6.5"/>
<text text-anchor="middle" x="198.5" y="-457.8" font-family="Times,serif" font-size="14.00" fill="#ffffff">Int</text>
</g>
<!-- e_14 -->
<g id="node42" class="node">
<title>e_14</title>
<defs>
<linearGradient id="l_4" gradientUnits="userSpaceOnUse" x1="250.5" y1="-405" x2="250.5" y2="-383" >
<stop offset="0" style="stop-color:#000000;stop-opacity:1.;"/>
<stop offset="1" style="stop-color:#ffffff;stop-opacity:1.;"/>
</linearGradient>
</defs>
<polygon fill="url(#l_4)" stroke="black" points="250.5,-405 239.5,-394 250.5,-383 261.5,-394 250.5,-405"/>
</g>
<!-- n_9&#45;&gt;e_14 -->
<g id="edge29" class="edge">
<title>n_9&#45;&gt;e_14</title>
<path fill="none" stroke="white" d="M218.73,-441.75C225.09,-432.38 239.24,-411.56 246.31,-401.16"/>
</g>
<!-- n_10 -->
<g id="node11" class="node">
<title>n_10</title>
<ellipse fill="#000000" stroke="#000000" cx="394.5" cy="-602.5" rx="6.5" ry="6.5"/>
<text text-anchor="middle" x="377.5" y="-612.8" font-family="Times,serif" font-size="14.00" fill="#ffffff">Int</text>
</g>
<!-- n_10&#45;&gt;e_11 -->
<g id="edge24" class="edge">
<title>n_10&#45;&gt;e_11:s_1</title>
<path fill="none" stroke="white" d="M394.5,-595.98C394.5,-586.42 394.5,-566.14 394.5,-549"/>
</g>
<!-- n_11 -->
<g id="node12" class="node">
<title>n_11</title>
<ellipse fill="#000000" stroke="#000000" cx="323.5" cy="-602.5" rx="6.5" ry="6.5"/>
<text text-anchor="middle" x="306.5" y="-612.8" font-family="Times,serif" font-size="14.00" fill="#ffffff">Int</text>
</g>
<!-- n_11&#45;&gt;e_13 -->
<g id="edge27" class="edge">
<title>n_11&#45;&gt;e_13:s_1</title>
<path fill="none" stroke="white" d="M323.06,-595.87C322.47,-587.89 321.5,-572.84 321.5,-560"/>
</g>
<!-- n_12 -->
<g id="node13" class="node">
<title>n_12</title>
<ellipse fill="#000000" stroke="#000000" cx="307.5" cy="-447.5" rx="6.5" ry="6.5"/>
<text text-anchor="middle" x="290.5" y="-457.8" font-family="Times,serif" font-size="14.00" fill="#ffffff">Int</text>
</g>
<!-- e_15 -->
<g id="node43" class="node">
<title>e_15</title>
<defs>
<linearGradient id="l_5" gradientUnits="userSpaceOnUse" x1="307.5" y1="-405" x2="307.5" y2="-383" >
<stop offset="0" style="stop-color:#000000;stop-opacity:1.;"/>
<stop offset="1" style="stop-color:#ffffff;stop-opacity:1.;"/>
</linearGradient>
</defs>
<polygon fill="url(#l_5)" stroke="black" points="307.5,-405 296.5,-394 307.5,-383 318.5,-394 307.5,-405"/>
</g>
<!-- n_12&#45;&gt;e_15 -->
<g id="edge31" class="edge">
<title>n_12&#45;&gt;e_15</title>
<path fill="none" stroke="white" d="M307.5,-440.99C307.5,-432.48 307.5,-416 307.5,-405.25"/>
</g>
<!-- n_13 -->
<g id="node14" class="node">
<title>n_13</title>
<ellipse fill="#000000" stroke="#000000" cx="476.5" cy="-602.5" rx="6.5" ry="6.5"/>
<text text-anchor="middle" x="459.5" y="-612.8" font-family="Times,serif" font-size="14.00" fill="#ffffff">Int</text>
</g>
<!-- e_19 -->
<g id="node47" class="node">
<title>e_19</title>
<polygon fill="none" stroke="black" points="538.5,-502 538.5,-548 592.5,-548 592.5,-502 538.5,-502"/>
<text text-anchor="middle" x="552" y="-532.8" font-family="Times,serif" font-size="14.00"> </text>
<polyline fill="none" stroke="black" points="565.5,-525 565.5,-548 "/>
<text text-anchor="middle" x="579" y="-532.8" font-family="Times,serif" font-size="14.00"> </text>
<polyline fill="none" stroke="black" points="538.5,-525 592.5,-525 "/>
<text text-anchor="middle" x="565.5" y="-509.8" font-family="Times,serif" font-size="14.00">&gt;</text>
</g>
<!-- n_13&#45;&gt;e_19 -->
<g id="edge38" class="edge">
<title>n_13&#45;&gt;e_19:s_0</title>
<path fill="none" stroke="white" d="M481.83,-598.55C492.2,-592.57 515.21,-578.04 528.5,-560 535.01,-551.16 526.52,-537 537.5,-537"/>
</g>
<!-- e_21 -->
<g id="node49" class="node">
<title>e_21</title>
<polygon fill="none" stroke="black" points="465.5,-490.5 465.5,-559.5 519.5,-559.5 519.5,-490.5 465.5,-490.5"/>
<text text-anchor="middle" x="479" y="-544.3" font-family="Times,serif" font-size="14.00"> </text>
<polyline fill="none" stroke="black" points="492.5,-536.5 492.5,-559.5 "/>
<text text-anchor="middle" x="506" y="-544.3" font-family="Times,serif" font-size="14.00"> </text>
<polyline fill="none" stroke="black" points="465.5,-536.5 519.5,-536.5 "/>
<text text-anchor="middle" x="492.5" y="-521.3" font-family="Times,serif" font-size="14.00">&#45;</text>
<polyline fill="none" stroke="black" points="465.5,-513.5 519.5,-513.5 "/>
<text text-anchor="middle" x="492.5" y="-498.3" font-family="Times,serif" font-size="14.00"> </text>
</g>
<!-- n_13&#45;&gt;e_21 -->
<g id="edge41" class="edge">
<title>n_13&#45;&gt;e_21:s_0</title>
<path fill="none" stroke="white" d="M476.94,-595.87C477.53,-587.89 478.5,-572.84 478.5,-560"/>
</g>
<!-- n_14 -->
<g id="node15" class="node">
<title>n_14</title>
<ellipse fill="#000000" stroke="#000000" cx="641.5" cy="-602.5" rx="6.5" ry="6.5"/>
<text text-anchor="middle" x="624.5" y="-612.8" font-family="Times,serif" font-size="14.00" fill="#ffffff">Int</text>
</g>
<!-- e_23 -->
<g id="node51" class="node">
<title>e_23</title>
<polygon fill="none" stroke="black" points="705.5,-502 705.5,-548 761.5,-548 761.5,-502 705.5,-502"/>
<text text-anchor="middle" x="719.5" y="-532.8" font-family="Times,serif" font-size="14.00"> </text>
<polyline fill="none" stroke="black" points="733.5,-525 733.5,-548 "/>
<text text-anchor="middle" x="747.5" y="-532.8" font-family="Times,serif" font-size="14.00"> </text>
<polyline fill="none" stroke="black" points="705.5,-525 761.5,-525 "/>
<text text-anchor="middle" x="733.5" y="-509.8" font-family="Times,serif" font-size="14.00">not &gt;</text>
</g>
<!-- n_14&#45;&gt;e_23 -->
<g id="edge45" class="edge">
<title>n_14&#45;&gt;e_23:s_0</title>
<path fill="none" stroke="white" d="M646.71,-598.13C656.43,-591.65 677.61,-576.62 691.5,-560 699.03,-550.99 692.76,-537 704.5,-537"/>
</g>
<!-- e_25 -->
<g id="node53" class="node">
<title>e_25</title>
<polygon fill="none" stroke="black" points="628.5,-490.5 628.5,-559.5 682.5,-559.5 682.5,-490.5 628.5,-490.5"/>
<text text-anchor="middle" x="642" y="-544.3" font-family="Times,serif" font-size="14.00"> </text>
<polyline fill="none" stroke="black" points="655.5,-536.5 655.5,-559.5 "/>
<text text-anchor="middle" x="669" y="-544.3" font-family="Times,serif" font-size="14.00"> </text>
<polyline fill="none" stroke="black" points="628.5,-536.5 682.5,-536.5 "/>
<text text-anchor="middle" x="655.5" y="-521.3" font-family="Times,serif" font-size="14.00">+</text>
<polyline fill="none" stroke="black" points="628.5,-513.5 682.5,-513.5 "/>
<text text-anchor="middle" x="655.5" y="-498.3" font-family="Times,serif" font-size="14.00"> </text>
</g>
<!-- n_14&#45;&gt;e_25 -->
<g id="edge48" class="edge">
<title>n_14&#45;&gt;e_25:s_0</title>
<path fill="none" stroke="white" d="M641.5,-595.86C641.5,-587.88 641.5,-572.82 641.5,-560"/>
</g>
<!-- n_15 -->
<g id="node16" class="node">
<title>n_15</title>
<ellipse fill="#000000" stroke="#000000" cx="579.5" cy="-602.5" rx="6.5" ry="6.5"/>
<text text-anchor="middle" x="562.5" y="-612.8" font-family="Times,serif" font-size="14.00" fill="#ffffff">Int</text>
</g>
<!-- n_15&#45;&gt;e_19 -->
<g id="edge39" class="edge">
<title>n_15&#45;&gt;e_19:s_1</title>
<path fill="none" stroke="white" d="M579.5,-595.98C579.5,-586.42 579.5,-566.14 579.5,-549"/>
</g>
<!-- n_16 -->
<g id="node17" class="node">
<title>n_16</title>
<ellipse fill="#000000" stroke="#000000" cx="507.5" cy="-602.5" rx="6.5" ry="6.5"/>
<text text-anchor="middle" x="490.5" y="-612.8" font-family="Times,serif" font-size="14.00" fill="#ffffff">Int</text>
</g>
<!-- n_16&#45;&gt;e_21 -->
<g id="edge42" class="edge">
<title>n_16&#45;&gt;e_21:s_1</title>
<path fill="none" stroke="white" d="M507.28,-595.86C506.98,-587.88 506.5,-572.83 506.5,-560"/>
</g>
<!-- n_17 -->
<g id="node18" class="node">
<title>n_17</title>
<ellipse fill="#000000" stroke="#000000" cx="492.5" cy="-447.5" rx="6.5" ry="6.5"/>
<text text-anchor="middle" x="475.5" y="-457.8" font-family="Times,serif" font-size="14.00" fill="#ffffff">Int</text>
</g>
<!-- e_26 -->
<g id="node54" class="node">
<title>e_26</title>
<defs>
<linearGradient id="l_6" gradientUnits="userSpaceOnUse" x1="492.5" y1="-405" x2="492.5" y2="-383" >
<stop offset="0" style="stop-color:#000000;stop-opacity:1.;"/>
<stop offset="1" style="stop-color:#ffffff;stop-opacity:1.;"/>
</linearGradient>
</defs>
<polygon fill="url(#l_6)" stroke="black" points="492.5,-405 481.5,-394 492.5,-383 503.5,-394 492.5,-405"/>
</g>
<!-- n_17&#45;&gt;e_26 -->
<g id="edge51" class="edge">
<title>n_17&#45;&gt;e_26</title>
<path fill="none" stroke="white" d="M492.5,-440.99C492.5,-432.48 492.5,-416 492.5,-405.25"/>
</g>
<!-- n_18 -->
<g id="node19" class="node">
<title>n_18</title>
<ellipse fill="#000000" stroke="#000000" cx="757.5" cy="-602.5" rx="6.5" ry="6.5"/>
<text text-anchor="middle" x="740.5" y="-612.8" font-family="Times,serif" font-size="14.00" fill="#ffffff">Int</text>
</g>
<!-- n_18&#45;&gt;e_23 -->
<g id="edge46" class="edge">
<title>n_18&#45;&gt;e_23:s_1</title>
<path fill="none" stroke="white" d="M755.76,-596.05C752.89,-586.58 747.5,-566.44 747.5,-549"/>
</g>
<!-- n_19 -->
<g id="node20" class="node">
<title>n_19</title>
<ellipse fill="#000000" stroke="#000000" cx="679.5" cy="-602.5" rx="6.5" ry="6.5"/>
<text text-anchor="middle" x="662.5" y="-612.8" font-family="Times,serif" font-size="14.00" fill="#ffffff">Int</text>
</g>
<!-- n_19&#45;&gt;e_25 -->
<g id="edge49" class="edge">
<title>n_19&#45;&gt;e_25:s_1</title>
<path fill="none" stroke="white" d="M677.38,-596.23C674.44,-588.44 669.5,-573.34 669.5,-560"/>
</g>
<!-- n_20 -->
<g id="node21" class="node">
<title>n_20</title>
<ellipse fill="#000000" stroke="#000000" cx="624.5" cy="-447.5" rx="6.5" ry="6.5"/>
<text text-anchor="middle" x="607.5" y="-457.8" font-family="Times,serif" font-size="14.00" fill="#ffffff">Int</text>
</g>
<!-- e_27 -->
<g id="node55" class="node">
<title>e_27</title>
<defs>
<linearGradient id="l_7" gradientUnits="userSpaceOnUse" x1="593.5" y1="-405" x2="593.5" y2="-383" >
<stop offset="0" style="stop-color:#000000;stop-opacity:1.;"/>
<stop offset="1" style="stop-color:#ffffff;stop-opacity:1.;"/>
</linearGradient>
</defs>
<polygon fill="url(#l_7)" stroke="black" points="593.5,-405 582.5,-394 593.5,-383 604.5,-394 593.5,-405"/>
</g>
<!-- n_20&#45;&gt;e_27 -->
<g id="edge53" class="edge">
<title>n_20&#45;&gt;e_27</title>
<path fill="none" stroke="white" d="M621.41,-441.37C615.72,-431.91 603.56,-411.72 597.34,-401.38"/>
</g>
<!-- n_21 -->
<g id="node22" class="node">
<title>n_21</title>
<ellipse fill="#ffffff" stroke="#000000" cx="492.5" cy="-340.5" rx="6.5" ry="6.5"/>
<text text-anchor="middle" x="475.5" y="-350.8" font-family="Times,serif" font-size="14.00" fill="#000000">Int</text>
</g>
<!-- e_29 -->
<g id="node57" class="node">
<title>e_29</title>
<defs>
<linearGradient id="l_8" gradientUnits="userSpaceOnUse" x1="480.5" y1="-298" x2="480.5" y2="-276" >
<stop offset="0" style="stop-color:#ffffff;stop-opacity:1.;"/>
<stop offset="1" style="stop-color:#000000;stop-opacity:1.;"/>
</linearGradient>
</defs>
<polygon fill="url(#l_8)" stroke="black" points="480.5,-298 469.5,-287 480.5,-276 491.5,-287 480.5,-298"/>
</g>
<!-- n_21&#45;&gt;e_29 -->
<g id="edge57" class="edge">
<title>n_21&#45;&gt;e_29</title>
<path fill="none" stroke="white" d="M491.22,-333.99C489.11,-324.96 484.92,-306.96 482.45,-296.35"/>
</g>
<!-- n_22 -->
<g id="node23" class="node">
<title>n_22</title>
<ellipse fill="#000000" stroke="#000000" cx="360.5" cy="-233.5" rx="6.5" ry="6.5"/>
<text text-anchor="middle" x="343.5" y="-243.8" font-family="Times,serif" font-size="14.00" fill="#ffffff">Int</text>
</g>
<!-- e_30 -->
<g id="node58" class="node">
<title>e_30</title>
<polygon fill="none" stroke="black" points="353.5,-121.5 353.5,-190.5 407.5,-190.5 407.5,-121.5 353.5,-121.5"/>
<text text-anchor="middle" x="367" y="-175.3" font-family="Times,serif" font-size="14.00"> </text>
<polyline fill="none" stroke="black" points="380.5,-167.5 380.5,-190.5 "/>
<text text-anchor="middle" x="394" y="-175.3" font-family="Times,serif" font-size="14.00"> </text>
<polyline fill="none" stroke="black" points="353.5,-167.5 407.5,-167.5 "/>
<text text-anchor="middle" x="380.5" y="-152.3" font-family="Times,serif" font-size="14.00">+</text>
<polyline fill="none" stroke="black" points="353.5,-144.5 407.5,-144.5 "/>
<text text-anchor="middle" x="380.5" y="-129.3" font-family="Times,serif" font-size="14.00"> </text>
</g>
<!-- n_22&#45;&gt;e_30 -->
<g id="edge59" class="edge">
<title>n_22&#45;&gt;e_30:s_0</title>
<path fill="none" stroke="white" d="M361.83,-226.9C363.6,-218.96 366.5,-203.96 366.5,-191"/>
</g>
<!-- n_23 -->
<g id="node24" class="node">
<title>n_23</title>
<ellipse fill="#000000" stroke="#000000" cx="456.5" cy="-233.5" rx="6.5" ry="6.5"/>
<text text-anchor="middle" x="439.5" y="-243.8" font-family="Times,serif" font-size="14.00" fill="#ffffff">Int</text>
</g>
<!-- n_23&#45;&gt;e_30 -->
<g id="edge60" class="edge">
<title>n_23&#45;&gt;e_30:s_1</title>
<path fill="none" stroke="white" d="M452.45,-227.94C440.95,-215 408.91,-179 408.5,-179"/>
</g>
<!-- out_1 -->
<g id="node62" class="node">
<title>out_1</title>
<text text-anchor="middle" x="456.5" y="-152.3" font-family="Times,serif" font-size="14.00">out_1</text>
</g>
<!-- n_23&#45;&gt;out_1 -->
<g id="edge4" class="edge">
<title>n_23&#45;&gt;out_1</title>
<path fill="none" stroke="white" d="M456.5,-226.58C456.5,-215.38 456.5,-190.75 456.5,-174.01"/>
</g>
<!-- n_24 -->
<g id="node25" class="node">
<title>n_24</title>
<ellipse fill="#000000" stroke="#000000" cx="380.5" cy="-78.5" rx="6.5" ry="6.5"/>
<text text-anchor="middle" x="363.5" y="-88.8" font-family="Times,serif" font-size="14.00" fill="#ffffff">Int</text>
</g>
<!-- out_0 -->
<g id="node61" class="node">
<title>out_0</title>
<text text-anchor="middle" x="380.5" y="-14.3" font-family="Times,serif" font-size="14.00">out_0</text>
</g>
<!-- n_24&#45;&gt;out_0 -->
<g id="edge3" class="edge">
<title>n_24&#45;&gt;out_0</title>
<path fill="none" stroke="white" d="M380.5,-71.68C380.5,-63.47 380.5,-48.16 380.5,-36.15"/>
</g>
<!-- n_25 -->
<g id="node26" class="node">
<title>n_25</title>
<ellipse fill="#ffffff" stroke="#000000" cx="543.5" cy="-734.5" rx="6.5" ry="6.5"/>
<text text-anchor="middle" x="526.5" y="-744.8" font-family="Times,serif" font-size="14.00" fill="#000000">Int</text>
</g>
<!-- e_16 -->
<g id="node44" class="node">
<title>e_16</title>
<defs>
<linearGradient id="l_9" gradientUnits="userSpaceOnUse" x1="451.5" y1="-679.5" x2="451.5" y2="-657.5" >
<stop offset="0" style="stop-color:#ffffff;stop-opacity:1.;"/>
<stop offset="1" style="stop-color:#000000;stop-opacity:1.;"/>
</linearGradient>
</defs>
<polygon fill="url(#l_9)" stroke="black" points="451.5,-679.5 440.5,-668.5 451.5,-657.5 462.5,-668.5 451.5,-679.5"/>
</g>
<!-- n_25&#45;&gt;e_16 -->
<g id="edge33" class="edge">
<title>n_25&#45;&gt;e_16</title>
<path fill="none" stroke="white" d="M537.88,-731.03C525.23,-725.3 493.87,-710.22 471.5,-692 465.5,-687.12 459.76,-680.36 455.97,-675.53"/>
</g>
<!-- e_17 -->
<g id="node45" class="node">
<title>e_17</title>
<defs>
<linearGradient id="l_10" gradientUnits="userSpaceOnUse" x1="635.5" y1="-679.5" x2="635.5" y2="-657.5" >
<stop offset="0" style="stop-color:#ffffff;stop-opacity:1.;"/>
<stop offset="1" style="stop-color:#000000;stop-opacity:1.;"/>
</linearGradient>
</defs>
<polygon fill="url(#l_10)" stroke="black" points="635.5,-679.5 624.5,-668.5 635.5,-657.5 646.5,-668.5 635.5,-679.5"/>
</g>
<!-- n_25&#45;&gt;e_17 -->
<g id="edge35" class="edge">
<title>n_25&#45;&gt;e_17</title>
<path fill="none" stroke="white" d="M549.12,-731.03C561.77,-725.3 593.13,-710.22 615.5,-692 621.5,-687.12 627.24,-680.36 631.03,-675.53"/>
</g>
<!-- n_26 -->
<g id="node27" class="node">
<title>n_26</title>
<ellipse fill="#ffffff" stroke="#000000" cx="307.5" cy="-340.5" rx="6.5" ry="6.5"/>
<text text-anchor="middle" x="290.5" y="-350.8" font-family="Times,serif" font-size="14.00" fill="#000000">Int</text>
</g>
<!-- e_28 -->
<g id="node56" class="node">
<title>e_28</title>
<defs>
<linearGradient id="l_11" gradientUnits="userSpaceOnUse" x1="311.5" y1="-298" x2="311.5" y2="-276" >
<stop offset="0" style="stop-color:#ffffff;stop-opacity:1.;"/>
<stop offset="1" style="stop-color:#000000;stop-opacity:1.;"/>
</linearGradient>
</defs>
<polygon fill="url(#l_11)" stroke="black" points="311.5,-298 300.5,-287 311.5,-276 322.5,-287 311.5,-298"/>
</g>
<!-- n_26&#45;&gt;e_28 -->
<g id="edge55" class="edge">
<title>n_26&#45;&gt;e_28</title>
<path fill="none" stroke="white" d="M307.93,-333.99C308.61,-325.27 309.93,-308.19 310.76,-297.48"/>
</g>
<!-- e_0 -->
<g id="node28" class="node">
<title>e_0</title>
<polygon fill="none" stroke="black" points="144.5,-884.5 144.5,-930.5 206.5,-930.5 206.5,-884.5 144.5,-884.5"/>
<text text-anchor="middle" x="175.5" y="-915.3" font-family="Times,serif" font-size="14.00">10000</text>
<polyline fill="none" stroke="black" points="144.5,-907.5 206.5,-907.5 "/>
<text text-anchor="middle" x="175.5" y="-892.3" font-family="Times,serif" font-size="14.00"> </text>
</g>
<!-- e_0&#45;&gt;n_2 -->
<g id="edge5" class="edge">
<title>e_0:t_0&#45;&gt;n_2</title>
<path fill="none" stroke="white" d="M175.5,-884C175.5,-871.18 175.5,-856.12 175.5,-848.14"/>
</g>
<!-- e_1 -->
<g id="node29" class="node">
<title>e_1</title>
<polygon fill="none" stroke="black" points="512.5,-884.5 512.5,-930.5 574.5,-930.5 574.5,-884.5 512.5,-884.5"/>
<text text-anchor="middle" x="543.5" y="-915.3" font-family="Times,serif" font-size="14.00">20000</text>
<polyline fill="none" stroke="black" points="512.5,-907.5 574.5,-907.5 "/>
<text text-anchor="middle" x="543.5" y="-892.3" font-family="Times,serif" font-size="14.00"> </text>
</g>
<!-- e_1&#45;&gt;n_3 -->
<g id="edge6" class="edge">
<title>e_1:t_0&#45;&gt;n_3</title>
<path fill="none" stroke="white" d="M543.5,-884C543.5,-871.18 543.5,-856.12 543.5,-848.14"/>
</g>
<!-- e_2&#45;&gt;n_4 -->
<g id="edge8" class="edge">
<title>e_2&#45;&gt;n_4</title>
<path fill="none" stroke="white" d="M175.5,-776.83C175.5,-766.16 175.5,-749.77 175.5,-741.19"/>
</g>
<!-- e_3&#45;&gt;n_25 -->
<g id="edge10" class="edge">
<title>e_3&#45;&gt;n_25</title>
<path fill="none" stroke="white" d="M543.5,-776.83C543.5,-766.16 543.5,-749.77 543.5,-741.19"/>
</g>
<!-- e_4&#45;&gt;n_5 -->
<g id="edge12" class="edge">
<title>e_4&#45;&gt;n_5</title>
<path fill="none" stroke="white" d="M86.37,-660.16C91.45,-647.16 101.91,-620.37 106.39,-608.9"/>
</g>
<!-- e_5&#45;&gt;n_6 -->
<g id="edge14" class="edge">
<title>e_5&#45;&gt;n_6</title>
<path fill="none" stroke="white" d="M270.37,-660.16C275.45,-647.16 285.91,-620.37 290.39,-608.9"/>
</g>
<!-- e_6 -->
<g id="node34" class="node">
<title>e_6</title>
<polygon fill="none" stroke="black" points="112.5,-645.5 112.5,-691.5 166.5,-691.5 166.5,-645.5 112.5,-645.5"/>
<text text-anchor="middle" x="139.5" y="-676.3" font-family="Times,serif" font-size="14.00">1</text>
<polyline fill="none" stroke="black" points="112.5,-668.5 166.5,-668.5 "/>
<text text-anchor="middle" x="139.5" y="-653.3" font-family="Times,serif" font-size="14.00"> </text>
</g>
<!-- e_6&#45;&gt;n_7 -->
<g id="edge15" class="edge">
<title>e_6:t_0&#45;&gt;n_7</title>
<path fill="none" stroke="white" d="M139.5,-645C139.5,-632.18 139.5,-617.12 139.5,-609.14"/>
</g>
<!-- e_8 -->
<g id="node36" class="node">
<title>e_8</title>
<polygon fill="none" stroke="black" points="184.5,-645.5 184.5,-691.5 238.5,-691.5 238.5,-645.5 184.5,-645.5"/>
<text text-anchor="middle" x="211.5" y="-676.3" font-family="Times,serif" font-size="14.00">1</text>
<polyline fill="none" stroke="black" points="184.5,-668.5 238.5,-668.5 "/>
<text text-anchor="middle" x="211.5" y="-653.3" font-family="Times,serif" font-size="14.00"> </text>
</g>
<!-- e_8&#45;&gt;n_8 -->
<g id="edge18" class="edge">
<title>e_8:t_0&#45;&gt;n_8</title>
<path fill="none" stroke="white" d="M211.5,-645C211.5,-632.18 211.5,-617.12 211.5,-609.14"/>
</g>
<!-- e_9&#45;&gt;n_9 -->
<g id="edge21" class="edge">
<title>e_9:t_0&#45;&gt;n_9</title>
<path fill="none" stroke="white" d="M197.5,-490C197.5,-475.55 206.8,-460.43 212.03,-453.07"/>
</g>
<!-- e_10 -->
<g id="node38" class="node">
<title>e_10</title>
<polygon fill="none" stroke="black" points="368.5,-645.5 368.5,-691.5 422.5,-691.5 422.5,-645.5 368.5,-645.5"/>
<text text-anchor="middle" x="395.5" y="-676.3" font-family="Times,serif" font-size="14.00">1</text>
<polyline fill="none" stroke="black" points="368.5,-668.5 422.5,-668.5 "/>
<text text-anchor="middle" x="395.5" y="-653.3" font-family="Times,serif" font-size="14.00"> </text>
</g>
<!-- e_10&#45;&gt;n_10 -->
<g id="edge22" class="edge">
<title>e_10:t_0&#45;&gt;n_10</title>
<path fill="none" stroke="white" d="M395.5,-645C395.5,-632.17 395.02,-617.12 394.72,-609.14"/>
</g>
<!-- e_12 -->
<g id="node40" class="node">
<title>e_12</title>
<polygon fill="none" stroke="black" points="296.5,-645.5 296.5,-691.5 350.5,-691.5 350.5,-645.5 296.5,-645.5"/>
<text text-anchor="middle" x="323.5" y="-676.3" font-family="Times,serif" font-size="14.00">1</text>
<polyline fill="none" stroke="black" points="296.5,-668.5 350.5,-668.5 "/>
<text text-anchor="middle" x="323.5" y="-653.3" font-family="Times,serif" font-size="14.00"> </text>
</g>
<!-- e_12&#45;&gt;n_11 -->
<g id="edge25" class="edge">
<title>e_12:t_0&#45;&gt;n_11</title>
<path fill="none" stroke="white" d="M323.5,-645C323.5,-632.18 323.5,-617.12 323.5,-609.14"/>
</g>
<!-- e_13&#45;&gt;n_12 -->
<g id="edge28" class="edge">
<title>e_13:t_0&#45;&gt;n_12</title>
<path fill="none" stroke="white" d="M307.5,-490C307.5,-477.18 307.5,-462.12 307.5,-454.14"/>
</g>
<!-- e_14&#45;&gt;n_26 -->
<g id="edge30" class="edge">
<title>e_14&#45;&gt;n_26</title>
<path fill="none" stroke="white" d="M255.76,-388.25C266.89,-378.19 292.67,-354.9 303.05,-345.52"/>
</g>
<!-- e_15&#45;&gt;n_26 -->
<g id="edge32" class="edge">
<title>e_15&#45;&gt;n_26</title>
<path fill="none" stroke="white" d="M307.5,-382.83C307.5,-372.16 307.5,-355.77 307.5,-347.19"/>
</g>
<!-- e_16&#45;&gt;n_13 -->
<g id="edge34" class="edge">
<title>e_16&#45;&gt;n_13</title>
<path fill="none" stroke="white" d="M454.37,-660.16C459.45,-647.16 469.91,-620.37 474.39,-608.9"/>
</g>
<!-- e_17&#45;&gt;n_14 -->
<g id="edge36" class="edge">
<title>e_17&#45;&gt;n_14</title>
<path fill="none" stroke="white" d="M636.36,-658.33C637.62,-644.92 639.92,-620.35 640.96,-609.23"/>
</g>
<!-- e_18 -->
<g id="node46" class="node">
<title>e_18</title>
<polygon fill="none" stroke="black" points="552.5,-645.5 552.5,-691.5 606.5,-691.5 606.5,-645.5 552.5,-645.5"/>
<text text-anchor="middle" x="579.5" y="-676.3" font-family="Times,serif" font-size="14.00">2</text>
<polyline fill="none" stroke="black" points="552.5,-668.5 606.5,-668.5 "/>
<text text-anchor="middle" x="579.5" y="-653.3" font-family="Times,serif" font-size="14.00"> </text>
</g>
<!-- e_18&#45;&gt;n_15 -->
<g id="edge37" class="edge">
<title>e_18:t_0&#45;&gt;n_15</title>
<path fill="none" stroke="white" d="M579.5,-645C579.5,-632.18 579.5,-617.12 579.5,-609.14"/>
</g>
<!-- e_20 -->
<g id="node48" class="node">
<title>e_20</title>
<polygon fill="none" stroke="black" points="480.5,-645.5 480.5,-691.5 534.5,-691.5 534.5,-645.5 480.5,-645.5"/>
<text text-anchor="middle" x="507.5" y="-676.3" font-family="Times,serif" font-size="14.00">2</text>
<polyline fill="none" stroke="black" points="480.5,-668.5 534.5,-668.5 "/>
<text text-anchor="middle" x="507.5" y="-653.3" font-family="Times,serif" font-size="14.00"> </text>
</g>
<!-- e_20&#45;&gt;n_16 -->
<g id="edge40" class="edge">
<title>e_20:t_0&#45;&gt;n_16</title>
<path fill="none" stroke="white" d="M507.5,-645C507.5,-632.18 507.5,-617.12 507.5,-609.14"/>
</g>
<!-- e_21&#45;&gt;n_17 -->
<g id="edge43" class="edge">
<title>e_21:t_0&#45;&gt;n_17</title>
<path fill="none" stroke="white" d="M492.5,-490C492.5,-477.18 492.5,-462.12 492.5,-454.14"/>
</g>
<!-- e_22 -->
<g id="node50" class="node">
<title>e_22</title>
<polygon fill="none" stroke="black" points="736.5,-645.5 736.5,-691.5 790.5,-691.5 790.5,-645.5 736.5,-645.5"/>
<text text-anchor="middle" x="763.5" y="-676.3" font-family="Times,serif" font-size="14.00">2</text>
<polyline fill="none" stroke="black" points="736.5,-668.5 790.5,-668.5 "/>
<text text-anchor="middle" x="763.5" y="-653.3" font-family="Times,serif" font-size="14.00"> </text>
</g>
<!-- e_22&#45;&gt;n_18 -->
<g id="edge44" class="edge">
<title>e_22:t_0&#45;&gt;n_18</title>
<path fill="none" stroke="white" d="M763.5,-645C763.5,-632.04 760.6,-617.04 758.83,-609.1"/>
</g>
<!-- e_24 -->
<g id="node52" class="node">
<title>e_24</title>
<polygon fill="none" stroke="black" points="664.5,-645.5 664.5,-691.5 718.5,-691.5 718.5,-645.5 664.5,-645.5"/>
<text text-anchor="middle" x="691.5" y="-676.3" font-family="Times,serif" font-size="14.00">2</text>
<polyline fill="none" stroke="black" points="664.5,-668.5 718.5,-668.5 "/>
<text text-anchor="middle" x="691.5" y="-653.3" font-family="Times,serif" font-size="14.00"> </text>
</g>
<!-- e_24&#45;&gt;n_19 -->
<g id="edge47" class="edge">
<title>e_24:t_0&#45;&gt;n_19</title>
<path fill="none" stroke="white" d="M691.5,-645C691.5,-631.5 685.57,-616.47 682.04,-608.73"/>
</g>
<!-- e_25&#45;&gt;n_20 -->
<g id="edge50" class="edge">
<title>e_25:t_0&#45;&gt;n_20</title>
<path fill="none" stroke="white" d="M655.5,-490C655.5,-472.91 638.42,-458.33 629.62,-451.95"/>
</g>
<!-- e_26&#45;&gt;n_21 -->
<g id="edge52" class="edge">
<title>e_26&#45;&gt;n_21</title>
<path fill="none" stroke="white" d="M492.5,-382.83C492.5,-372.16 492.5,-355.77 492.5,-347.19"/>
</g>
<!-- e_27&#45;&gt;n_21 -->
<g id="edge54" class="edge">
<title>e_27&#45;&gt;n_21</title>
<path fill="none" stroke="white" d="M586.87,-389.62C568.27,-380.13 515.76,-353.36 498.26,-344.44"/>
</g>
<!-- e_28&#45;&gt;n_22 -->
<g id="edge56" class="edge">
<title>e_28&#45;&gt;n_22</title>
<path fill="none" stroke="white" d="M316.38,-280.87C326.06,-270.7 347.54,-248.12 356.48,-238.73"/>
</g>
<!-- e_29&#45;&gt;n_23 -->
<g id="edge58" class="edge">
<title>e_29&#45;&gt;n_23</title>
<path fill="none" stroke="white" d="M477.16,-278.84C472.27,-268.34 463.26,-249 458.94,-239.73"/>
</g>
<!-- e_30&#45;&gt;n_24 -->
<g id="edge61" class="edge">
<title>e_30:t_0&#45;&gt;n_24</title>
<path fill="none" stroke="white" d="M380.5,-121C380.5,-108.18 380.5,-93.12 380.5,-85.14"/>
</g>
<!-- in_0 -->
<g id="node59" class="node">
<title>in_0</title>
<text text-anchor="middle" x="27.5" y="-903.8" font-family="Times,serif" font-size="14.00">in_0</text>
</g>
<!-- in_0&#45;&gt;n_0 -->
<g id="edge1" class="edge">
<title>in_0&#45;&gt;n_0</title>
<path fill="none" stroke="white" d="M27.5,-889.35C27.5,-875.58 27.5,-857.09 27.5,-848"/>
</g>
<!-- in_1 -->
<g id="node60" class="node">
<title>in_1</title>
<text text-anchor="middle" x="99.5" y="-903.8" font-family="Times,serif" font-size="14.00">in_1</text>
</g>
<!-- in_1&#45;&gt;n_1 -->
<g id="edge2" class="edge">
<title>in_1&#45;&gt;n_1</title>
<path fill="none" stroke="white" d="M99.5,-889.35C99.5,-875.58 99.5,-857.09 99.5,-848"/>
</g>
</g>
</svg>
